<svg data-v-423bf9ae="" xmlns="http://www.w3.org/2000/svg" viewBox="0 0 555.1582824091865 60" class="font"><!----><!----><!----><g data-v-423bf9ae="" id="47400928-2862-4b77-99d0-20c77c391d66" fill="black" transform="matrix(4.222378311903962,0,0,4.222378311903962,-2.322312656839358,-11.864883291680869)"><path d="M2.80 9.35L2.80 9.35Q2.80 7.84 2.76 6.79L2.76 6.79Q2.18 6.86 1.85 7.20Q1.53 7.55 1.53 7.95Q1.53 8.34 1.85 8.75Q2.18 9.16 2.80 9.35ZM3.77 10.47L3.77 10.47Q3.84 12.88 3.84 13.21Q3.84 13.54 3.67 13.75L3.67 13.75Q3.50 13.96 3.34 13.96Q3.18 13.96 3.05 13.89L3.05 13.89Q2.69 13.71 2.69 13.23L2.69 13.23L2.79 10.30Q1.72 10.08 1.12 9.41L1.12 9.41Q0.55 8.72 0.55 7.95Q0.55 7.18 1.14 6.59Q1.74 5.99 2.72 5.85L2.72 5.85L2.65 4.19Q2.67 3.70 3.09 3.51L3.09 3.51Q3.96 3.16 5.15 3.16L5.15 3.16Q6.89 3.16 8.04 4.17Q9.20 5.17 9.20 6.51Q9.20 7.85 8.51 8.76L8.51 8.76Q7.22 10.49 4.41 10.49L4.41 10.49Q3.91 10.49 3.77 10.47ZM3.74 6.79L3.74 6.79Q3.75 7.15 3.75 9.53L3.75 9.53Q3.84 9.55 4.14 9.55L4.14 9.55Q5.87 9.55 6.99 8.81Q8.11 8.06 8.11 6.55L8.11 6.55Q8.11 5.52 7.23 4.82Q6.36 4.13 5.14 4.13L5.14 4.13Q4.28 4.13 3.72 4.31L3.72 4.31Q3.72 4.82 3.75 5.85L3.75 5.85Q4.62 5.96 5.27 6.48Q5.92 7 5.92 7.53L5.92 7.53Q5.92 7.76 5.79 7.88Q5.66 8.01 5.47 8.01Q5.29 8.01 5.05 7.73L5.05 7.73Q4.28 6.83 3.74 6.79ZM15.88 10.42L15.88 10.42Q15.88 11.44 16.02 12.12Q16.17 12.80 16.39 12.88L16.39 12.88Q16.48 12.92 16.60 12.94Q16.72 12.95 16.77 12.98Q16.81 13.01 16.81 13.09L16.81 13.09Q16.81 13.48 16.60 13.71Q16.39 13.94 15.99 13.94Q15.60 13.94 15.37 13.43Q15.15 12.92 15.15 12.10L15.15 12.10Q14.77 12.91 14.10 13.43Q13.43 13.94 12.58 13.94Q11.73 13.94 11.13 13.38L11.13 13.38Q10.01 12.35 10.01 10.46L10.01 10.46Q10.01 8.93 10.89 7.80Q11.77 6.66 13.16 6.66L13.16 6.66Q14.21 6.66 14.98 7.38L14.98 7.38Q14.98 6.66 15.51 6.66L15.51 6.66Q16.16 6.66 16.16 7.62Q16.16 8.58 15.88 10.42ZM15.06 10.54L15.06 10.54L14.99 8.39Q14.17 7.57 13.24 7.57Q12.32 7.57 11.66 8.40Q11.00 9.23 11.00 10.39Q11.00 11.56 11.44 12.30Q11.87 13.03 12.64 13.03Q13.41 13.03 14.06 12.35Q14.71 11.66 15.06 10.54ZM20.54 12.68L20.54 12.68Q20.68 12.68 21.45 10.04Q22.22 7.41 22.32 7.17L22.32 7.17Q22.51 6.66 22.94 6.66Q23.37 6.66 23.53 7.15L23.53 7.15L24.35 10.05Q25.13 12.68 25.24 12.68L25.24 12.68Q25.40 12.68 26.17 10.07L26.17 10.07Q26.35 9.46 26.63 8.43L26.63 8.43L26.96 7.21Q27.13 6.66 27.48 6.66L27.48 6.66Q27.69 6.66 27.84 6.79Q27.99 6.92 27.99 7.13Q27.99 7.34 27.73 8.12Q27.48 8.90 27.38 9.20Q27.27 9.49 26.73 11.17Q26.19 12.85 25.98 13.40Q25.76 13.94 25.20 13.94Q24.64 13.94 24.39 13.22L24.39 13.22Q23.88 11.76 23.42 10.14Q22.96 8.53 22.86 8.53Q22.75 8.53 22.58 9.09L22.58 9.09L22.22 10.37Q21.49 12.94 21.21 13.45L21.21 13.45Q20.97 13.94 20.44 13.94Q19.91 13.94 19.64 13.17L19.64 13.17Q19.61 13.09 19.56 12.94Q19.50 12.78 19.41 12.50Q19.32 12.22 19.23 11.94Q19.14 11.66 18.75 10.49L18.75 10.49L18.37 9.38Q18.24 9.00 18.09 8.57L18.09 8.57Q17.68 7.46 17.68 7.20Q17.68 6.94 17.83 6.80Q17.98 6.66 18.19 6.66L18.19 6.66Q18.59 6.66 18.75 7.15L18.75 7.15Q18.76 7.17 19.11 8.39L19.11 8.39L19.56 9.87Q19.61 10.02 19.71 10.32L19.71 10.32Q20.05 11.42 20.26 12.05Q20.47 12.68 20.54 12.68ZM34.16 11.79L34.16 11.79Q34.16 12.73 33.38 13.34Q32.61 13.94 31.53 13.94Q30.45 13.94 29.64 13.45L29.64 13.45Q28.84 12.95 28.84 12.46L28.84 12.46Q28.84 12.14 29.11 12.03Q29.37 11.91 29.51 12.05L29.51 12.05Q29.54 12.07 30.07 12.60L30.07 12.60Q30.23 12.74 30.65 12.89Q31.07 13.03 31.39 13.03L31.39 13.03Q32.17 13.03 32.66 12.71Q33.15 12.39 33.15 11.80L33.15 11.80Q33.15 11.06 31.75 10.58L31.75 10.58Q30.20 10.05 29.76 9.67L29.76 9.67Q29.55 9.49 29.38 9.19Q29.20 8.89 29.20 8.55L29.20 8.55Q29.20 7.80 29.90 7.23Q30.59 6.66 31.56 6.66Q32.52 6.66 33.12 6.99Q33.73 7.32 33.73 7.73L33.73 7.73Q33.73 8.19 33.24 8.19L33.24 8.19Q33.04 8.19 32.82 8.04L32.82 8.04Q32.14 7.57 31.52 7.57Q30.90 7.57 30.58 7.85L30.58 7.85Q30.20 8.12 30.20 8.48Q30.20 8.83 30.56 9.06Q30.93 9.28 31.75 9.61Q32.58 9.94 32.76 10.02L32.76 10.02Q33.38 10.29 33.77 10.75Q34.16 11.21 34.16 11.79ZM35.62 14.20L35.62 14.20L35.52 13.30Q35.52 12.89 35.70 12.64L35.70 12.64Q35.94 12.38 36.13 12.38Q36.33 12.38 36.47 12.43L36.47 12.43Q36.83 12.61 36.83 12.99L36.83 12.99Q36.83 13.05 36.82 13.12L36.82 13.12Q36.82 14.06 36.34 15.00Q35.85 15.95 35.38 15.95L35.38 15.95Q35.27 15.95 35.18 15.87Q35.10 15.79 35.10 15.68Q35.10 15.57 35.36 15.14Q35.62 14.71 35.62 14.20ZM43.78 9.35L43.78 9.35Q43.78 7.84 43.74 6.79L43.74 6.79Q43.16 6.86 42.83 7.20Q42.50 7.55 42.50 7.95Q42.50 8.34 42.83 8.75Q43.16 9.16 43.78 9.35ZM44.74 10.47L44.74 10.47Q44.81 12.88 44.81 13.21Q44.81 13.54 44.65 13.75L44.65 13.75Q44.48 13.96 44.32 13.96Q44.16 13.96 44.03 13.89L44.03 13.89Q43.67 13.71 43.67 13.23L43.67 13.23L43.76 10.30Q42.70 10.08 42.10 9.41L42.10 9.41Q41.52 8.72 41.52 7.95Q41.52 7.18 42.12 6.59Q42.71 5.99 43.69 5.85L43.69 5.85L43.62 4.19Q43.65 3.70 44.07 3.51L44.07 3.51Q44.94 3.16 46.13 3.16L46.13 3.16Q47.87 3.16 49.02 4.17Q50.18 5.17 50.18 6.51Q50.18 7.85 49.49 8.76L49.49 8.76Q48.20 10.49 45.39 10.49L45.39 10.49Q44.88 10.49 44.74 10.47ZM44.72 6.79L44.72 6.79Q44.73 7.15 44.73 9.53L44.73 9.53Q44.81 9.55 45.12 9.55L45.12 9.55Q46.84 9.55 47.96 8.81Q49.08 8.06 49.08 6.55L49.08 6.55Q49.08 5.52 48.21 4.82Q47.33 4.13 46.12 4.13L46.12 4.13Q45.26 4.13 44.70 4.31L44.70 4.31Q44.70 4.82 44.73 5.85L44.73 5.85Q45.60 5.96 46.25 6.48Q46.90 7 46.90 7.53L46.90 7.53Q46.90 7.76 46.77 7.88Q46.63 8.01 46.45 8.01Q46.27 8.01 46.03 7.73L46.03 7.73Q45.26 6.83 44.72 6.79ZM54.56 7.50L54.56 7.50Q53.63 7.50 53.01 8.20Q52.39 8.89 52.19 9.81L52.19 9.81Q52.95 10.04 53.89 10.04Q54.84 10.04 55.41 9.72Q55.99 9.39 55.99 8.83Q55.99 8.27 55.60 7.89Q55.22 7.50 54.56 7.50ZM53.96 10.92L53.96 10.92Q53.23 10.92 52.18 10.71L52.18 10.71Q52.26 11.70 52.91 12.40Q53.56 13.10 54.43 13.10Q55.30 13.10 55.86 12.68Q56.42 12.25 56.59 12.25Q56.77 12.25 56.87 12.36Q56.98 12.46 56.98 12.61L56.98 12.61Q56.98 13.01 56.17 13.51Q55.37 14.01 54.43 14.01L54.43 14.01Q52.98 14.01 52.11 12.98Q51.25 11.96 51.20 10.53L51.20 10.53Q50.46 10.29 50.46 9.80L50.46 9.80Q50.46 9.48 50.69 9.38L50.69 9.38Q50.78 9.35 50.91 9.35Q51.04 9.35 51.28 9.48L51.28 9.48Q51.60 8.20 52.45 7.40Q53.30 6.59 54.44 6.59Q55.58 6.59 56.28 7.22Q56.98 7.85 56.98 8.87Q56.98 9.88 56.11 10.40Q55.24 10.92 53.96 10.92ZM61.39 7.69L61.39 7.69L60.23 7.66L60.20 10.98Q60.20 12.26 60.30 12.65Q60.40 13.03 60.86 13.03L60.86 13.03Q61.08 13.03 61.39 12.89Q61.70 12.74 61.77 12.74L61.77 12.74Q62.06 12.74 62.06 13.03Q62.06 13.33 61.54 13.64Q61.03 13.94 60.52 13.94L60.52 13.94Q59.30 13.94 59.30 12.15L59.30 12.15L59.29 7.66Q58.83 7.70 58.65 7.70L58.65 7.70Q57.95 7.70 57.95 7.24Q57.95 6.78 58.65 6.78L58.65 6.78L59.26 6.80L59.23 5.24Q59.23 4.54 59.77 4.54Q60.30 4.54 60.30 5.24L60.30 5.24L60.26 6.82L61.39 6.76Q62.09 6.76 62.09 7.24L62.09 7.24Q62.09 7.69 61.39 7.69ZM68.92 10.42L68.92 10.42Q68.92 11.44 69.07 12.12Q69.22 12.80 69.44 12.88L69.44 12.88Q69.52 12.92 69.64 12.94Q69.76 12.95 69.81 12.98Q69.86 13.01 69.86 13.09L69.86 13.09Q69.86 13.48 69.65 13.71Q69.44 13.94 69.04 13.94Q68.64 13.94 68.42 13.43Q68.19 12.92 68.19 12.10L68.19 12.10Q67.82 12.91 67.14 13.43Q66.47 13.94 65.62 13.94Q64.78 13.94 64.18 13.38L64.18 13.38Q63.06 12.35 63.06 10.46L63.06 10.46Q63.06 8.93 63.94 7.80Q64.82 6.66 66.21 6.66L66.21 6.66Q67.26 6.66 68.03 7.38L68.03 7.38Q68.03 6.66 68.56 6.66L68.56 6.66Q69.20 6.66 69.20 7.62Q69.20 8.58 68.92 10.42ZM68.11 10.54L68.11 10.54L68.04 8.39Q67.21 7.57 66.29 7.57Q65.37 7.57 64.71 8.40Q64.05 9.23 64.05 10.39Q64.05 11.56 64.48 12.30Q64.92 13.03 65.69 13.03Q66.46 13.03 67.11 12.35Q67.76 11.66 68.11 10.54ZM72.48 3.86L72.48 3.86L72.41 8.55L72.48 13.24Q72.48 13.94 71.95 13.94Q71.41 13.94 71.41 13.24L71.41 13.24L71.48 8.55L71.41 3.86Q71.41 3.16 71.95 3.16Q72.48 3.16 72.48 3.86ZM79.34 11.79L79.34 11.79Q79.34 12.73 78.56 13.34Q77.78 13.94 76.71 13.94Q75.63 13.94 74.82 13.45L74.82 13.45Q74.02 12.95 74.02 12.46L74.02 12.46Q74.02 12.14 74.28 12.03Q74.55 11.91 74.69 12.05L74.69 12.05Q74.72 12.07 75.25 12.60L75.25 12.60Q75.40 12.74 75.82 12.89Q76.24 13.03 76.57 13.03L76.57 13.03Q77.35 13.03 77.84 12.71Q78.33 12.39 78.33 11.80L78.33 11.80Q78.33 11.06 76.93 10.58L76.93 10.58Q75.38 10.05 74.94 9.67L74.94 9.67Q74.73 9.49 74.56 9.19Q74.38 8.89 74.38 8.55L74.38 8.55Q74.38 7.80 75.07 7.23Q75.77 6.66 76.73 6.66Q77.70 6.66 78.30 6.99Q78.90 7.32 78.90 7.73L78.90 7.73Q78.90 8.19 78.41 8.19L78.41 8.19Q78.22 8.19 77.99 8.04L77.99 8.04Q77.32 7.57 76.70 7.57Q76.08 7.57 75.75 7.85L75.75 7.85Q75.38 8.12 75.38 8.48Q75.38 8.83 75.74 9.06Q76.10 9.28 76.93 9.61Q77.76 9.94 77.94 10.02L77.94 10.02Q78.55 10.29 78.95 10.75Q79.34 11.21 79.34 11.79ZM88.96 8.85L88.96 8.85L90.71 8.92Q91.43 8.92 92.05 8.55Q92.67 8.19 92.67 7.50L92.67 7.50Q92.67 6.45 91.60 6.10L91.60 6.10Q91.18 5.96 91.01 5.84Q90.85 5.71 90.85 5.50L90.85 5.50Q90.85 5.04 91.38 5.04L91.38 5.04Q92.15 5.04 92.88 5.80Q93.62 6.57 93.62 7.43Q93.62 8.29 93.10 8.82L93.10 8.82Q92.20 9.80 90.33 9.80L90.33 9.80Q90.71 10.43 90.71 11.33Q90.71 12.22 89.82 13.12Q88.93 14.01 87.39 14.01Q85.85 14.01 84.86 13.03Q83.87 12.04 83.87 10.56L83.87 10.56Q83.87 9.72 84.36 8.93Q84.84 8.13 85.65 7.59L85.65 7.59Q85.19 7.18 84.89 6.64Q84.59 6.09 84.59 5.54L84.59 5.54Q84.59 4.65 85.23 4.01Q85.88 3.37 87.00 3.37L87.00 3.37Q87.72 3.37 88.34 3.70Q88.96 4.02 88.96 4.40L88.96 4.40Q88.96 4.61 88.83 4.73Q88.70 4.86 88.54 4.86Q88.37 4.86 87.94 4.57Q87.51 4.28 86.93 4.28Q86.35 4.28 85.96 4.62Q85.57 4.96 85.57 5.46Q85.57 5.96 85.81 6.42Q86.04 6.87 86.41 7.13L86.41 7.13Q86.65 7.03 86.90 7.03Q87.16 7.03 87.42 7.10L87.42 7.10Q87.98 7.24 87.98 7.69Q87.98 8.15 87.39 8.29L87.39 8.29Q87.18 8.34 86.90 8.34Q86.62 8.34 86.32 8.19L86.32 8.19Q84.88 8.90 84.88 10.51L84.88 10.51Q84.88 11.59 85.58 12.33L85.58 12.33Q86.30 13.06 87.36 13.06Q88.42 13.06 89.07 12.47Q89.73 11.89 89.73 11.09L89.73 11.09Q89.73 9.87 89.03 9.87L89.03 9.87Q88.91 9.87 88.56 10.00Q88.21 10.12 88.04 10.12Q87.86 10.12 87.73 9.97Q87.60 9.83 87.60 9.55Q87.60 9.28 87.99 9.07Q88.38 8.85 88.96 8.85ZM99.64 13.13L99.64 13.13L99.71 9.00Q98.78 8.85 98.78 8.36L98.78 8.36Q98.78 8.13 98.91 8.01L98.91 8.01Q99.05 7.87 99.18 7.87Q99.32 7.87 99.71 7.95L99.71 7.95L99.67 5.70Q98.73 5.59 98.17 5.14Q97.61 4.70 97.61 4.05L97.61 4.05Q97.61 3.61 97.96 3.21Q98.31 2.81 99.01 2.81Q99.72 2.81 100.14 3.34Q100.56 3.86 100.66 4.75L100.66 4.75Q103.10 4.75 105.13 3.19L105.13 3.19Q105.46 2.97 105.59 2.97L105.59 2.97Q105.92 2.97 105.98 3.33L105.98 3.33Q105.98 3.92 105.13 4.49Q104.29 5.07 103.05 5.43Q101.82 5.78 100.72 5.78L100.72 5.78L100.72 8.09Q101.18 8.16 101.81 8.16Q102.45 8.16 103.31 8.00Q104.16 7.84 104.26 7.84Q104.37 7.84 104.50 7.95Q104.64 8.05 104.64 8.23L104.64 8.23Q104.64 8.62 103.63 8.88Q102.63 9.13 101.46 9.13L101.46 9.13Q101.09 9.13 100.72 9.10L100.72 9.10L100.79 13.13Q100.79 13.94 100.21 13.94Q99.64 13.94 99.64 13.13ZM99.64 4.69L99.64 4.69Q99.53 3.72 98.99 3.72L98.99 3.72Q98.83 3.72 98.70 3.84Q98.57 3.95 98.57 4.09L98.57 4.09Q98.57 4.56 99.64 4.69ZM107.84 7.81L107.84 7.81L107.73 10.89Q107.73 11.86 108.14 12.45Q108.56 13.03 109.27 13.03Q109.98 13.03 110.66 12.24L110.66 12.24Q111.31 11.42 111.59 10.42L111.59 10.42L111.55 7.38Q111.55 6.66 112.08 6.66L112.08 6.66Q112.73 6.66 112.73 7.62Q112.73 8.58 112.45 10.42L112.45 10.42Q112.45 11.44 112.59 12.12Q112.74 12.80 112.97 12.88L112.97 12.88Q113.05 12.92 113.17 12.94Q113.29 12.95 113.34 12.98Q113.39 13.01 113.39 13.09L113.39 13.09Q113.39 13.47 113.15 13.71Q112.92 13.94 112.57 13.94L112.57 13.94Q111.69 13.94 111.69 12.15L111.69 12.15Q110.66 13.94 109.09 13.94L109.09 13.94Q107.97 13.94 107.35 13.12L107.35 13.12Q106.74 12.26 106.74 11.07L106.74 11.07L106.82 8.96Q106.82 8.53 106.71 7.92Q106.60 7.31 106.60 7.15Q106.60 7 106.77 6.83Q106.95 6.66 107.20 6.66L107.20 6.66Q107.84 6.66 107.84 7.81ZM120.85 9.39L120.85 9.39L120.78 11.59L120.78 12.19Q120.81 12.77 121.06 12.88L121.06 12.88Q121.16 12.91 121.28 12.93Q121.41 12.95 121.46 12.98Q121.51 13.01 121.51 13.09L121.51 13.09Q121.51 13.45 121.27 13.70Q121.04 13.94 120.74 13.94L120.74 13.94Q120.22 13.94 120.01 13.54Q119.80 13.13 119.80 12.29L119.80 12.29L119.85 9.72Q119.85 8.75 119.44 8.17Q119.03 7.59 118.31 7.59Q117.60 7.59 116.93 8.38Q116.27 9.17 115.99 10.19L115.99 10.19L116.03 13.23Q116.03 13.94 115.50 13.94L115.50 13.94Q114.86 13.94 114.86 12.98Q114.86 12.03 115.14 10.19L115.14 10.19Q115.14 9.60 115.02 8.54Q114.90 7.48 114.90 7.25Q114.90 7.03 115.05 6.85Q115.21 6.66 115.44 6.66Q115.68 6.66 115.84 6.85Q115.99 7.03 115.99 7.24Q115.99 7.45 115.98 7.87Q115.98 8.29 115.98 8.44L115.98 8.44Q117.00 6.66 118.50 6.66L118.50 6.66Q119.62 6.66 120.23 7.47Q120.85 8.27 120.85 9.39ZM127.72 10.53L127.72 10.53L127.72 8.39Q126.95 7.57 126.02 7.57Q125.09 7.57 124.40 8.40Q123.70 9.23 123.70 10.38Q123.70 11.54 124.14 12.29Q124.59 13.03 125.34 13.03Q126.10 13.03 126.73 12.33Q127.37 11.62 127.72 10.53ZM127.69 7.32L127.69 7.32Q127.72 6.66 128.23 6.66L128.23 6.66Q128.87 6.66 128.87 7.62Q128.87 8.58 128.59 10.42L128.59 10.42Q128.76 12.12 128.76 12.96L128.76 12.96Q128.76 14.78 127.89 15.90Q127.02 17.02 125.48 17.02L125.48 17.02Q124.64 17.02 123.86 16.67Q123.07 16.31 123.07 15.95Q123.07 15.60 123.40 15.60L123.40 15.60Q123.52 15.60 124.11 15.86Q124.70 16.11 125.48 16.11L125.48 16.11Q126.60 16.11 127.25 15.28Q127.89 14.45 127.89 13.10L127.89 13.10Q127.89 12.61 127.82 12.10L127.82 12.10Q127.50 12.85 126.81 13.40Q126.13 13.94 125.38 13.94L125.38 13.94Q124.04 13.94 123.30 12.78L123.30 12.78Q122.67 11.73 122.67 10.33Q122.67 8.93 123.61 7.80Q124.54 6.66 125.94 6.66L125.94 6.66Q126.91 6.66 127.69 7.32ZM131.46 3.65L131.46 3.65Q132.03 3.65 132.03 4.33L132.03 4.33Q132.03 4.63 131.83 4.91Q131.63 5.18 131.35 5.18L131.35 5.18Q130.76 5.18 130.76 4.47L130.76 4.47Q130.76 4.13 130.96 3.89Q131.17 3.65 131.46 3.65ZM131.92 7.36L131.92 7.36L131.85 10.30L131.92 13.24Q131.92 13.94 131.39 13.94Q130.86 13.94 130.86 13.24L130.86 13.24L130.93 10.30L130.86 7.36Q130.86 6.66 131.39 6.66Q131.92 6.66 131.92 7.36Z"></path></g><!----><!----></svg>